<?xml version="1.0" encoding="utf-8"?>
<!-- Generator: Adobe Illustrator 24.0.2, SVG Export Plug-In . SVG Version: 6.00 Build 0)  -->
<svg version="1.1" id="Layer_1" xmlns="http://www.w3.org/2000/svg" xmlns:xlink="http://www.w3.org/1999/xlink" x="0px" y="0px"
	 viewBox="0 0 1207.5 683" style="enable-background:new 0 0 1207.5 683;" xml:space="preserve">
<style type="text/css">
	.st0{fill:none;}
	.st1{fill:none;stroke:#000000;stroke-width:5;stroke-miterlimit:10;}
</style>
<title>Ramen Bowl Logo</title>
<g id="Layer_4">
	<path class="st0" d="M1,0v682h1206V0H1z M51.3,322.8c-6.4,0-6.4-10,0-10C57.8,312.8,57.8,322.8,51.3,322.8z M217.5,253.9
		C217.5,253.9,217.4,253.9,217.5,253.9c-5,3.7-12.1,3.6-17.8,5.1c-7.1,1.9-7.7,7.8-11.2,13c-2.1,7.5-6.2,14.6-6.2,22.5
		c0,1.7-0.7,3-1.8,3.8c0,0.1,0.1,0.1,0.1,0.2c0.8,1.7,1.8,3.2,2.7,4.8c0.2,0.4,0.4,0.7,0.5,1.1c3.7,0.6,4.7,4.9,3.1,7.7
		c0.6-0.2,1.2-0.4,2-0.4c6.4,0,6.4,10,0,10c-4.5,0-5.8-4.8-4.1-7.7c-0.6,0.2-1.2,0.4-2,0.4c-2.6,0-4.2-1.6-4.7-3.6
		c-1.4-0.3-2.7-1.2-3.5-2.4c-0.6-0.9-1.1-1.8-1.6-2.7c-4.9-0.9-5.1-8.3-0.6-9.7c-0.1-0.4-0.2-0.9-0.2-1.4c0-8.2,3.5-15.4,5.9-23
		c-0.3-1.1,0-2.3,0.9-3.5c4.4-5.7,5.2-12.7,12.1-16.4c3.6-2,7.6-2.6,11.6-3.5c3.2-0.7,6.7-0.8,9.4-2.7c0.1-0.1,0.3-0.2,0.5-0.3
		c0.6-0.5,1.5-0.8,2.4-0.9c0.1,0,0.1,0,0.2,0c0.1,0,0.2,0,0.3,0c0,0,0,0,0.1,0c0,0,0.1,0,0.1,0C221.5,244.2,222.1,252.2,217.5,253.9
		z M218.7,233c-1.3,0.1-3,1.5-4.4,1.9c-1.7,0.5-3.5,0.7-5.2,0.8c-1.4,0.1-3,0.3-4.4,0.2c-0.6,0-0.9,0-1,0.1c-0.4,1-0.9,1.7-1.6,2.2
		c-0.3,1.2-1,2.2-2.4,2.8c-2.9,1.2-5.8,2.3-8.6,3.6c-1.1,0.5-4.2,1.6-4.7,2.6c-0.8,1.6-2,2.4-3.3,2.5c-0.5,1-1.4,1.9-2.7,2.3
		c0,0-0.1,0-0.1,0c-0.2,0.1-0.5,0.1-0.7,0.2c-0.2,0-0.5,0.1-0.7,0.1c0,0-0.1,0-0.1,0c0,0,0,0,0,0c0,0,0,0,0,0c-4,0-5.5-3.9-4.5-6.9
		c0.4-1.7,1.7-3.2,3.7-3.6c1-1.9,2.7-3.1,4.5-4.1c0.4-1.5,1.4-2.8,3.3-3.4c2.9-0.9,5.7-2,8.7-2.5c1.6-4.2,5.3-5.7,9.7-6
		c2.3-0.1,4.6,0,6.8-0.5c2.7-0.7,4.8-2.2,7.7-2.4C225.2,222.5,225.1,232.5,218.7,233z M230.1,199.4
		C230.1,199.4,230.1,199.4,230.1,199.4c-0.5,0.2-0.8,0.3-1.3,0.3c-0.4,0.2-0.8,0.5-1.2,0.6c-3.3,1.2-7.6,2.8-11.1,2.3
		c-0.9-0.1-0.9-0.2-0.7-0.2c-1.1,0.1-2.2,0.4-3.3,0.5c-0.4,0.1-0.8,0.1-1.2,0.2c0,0,0,0,0,0c-0.4,0.2-0.6,0.3-0.8,0.4
		c0,0-0.1,0-0.1,0c-0.5,0.2-0.8,0.3-1.7,0.3c-0.6,0-1.2-0.1-1.8-0.3c-0.4,0-0.8,0-1.1,0c-0.9,0-1.7-0.2-2.4-0.5
		c-0.5,1.9-2.1,3.5-4.6,3.5c-0.4,0-0.8,0-1.2-0.1c-0.8,1-2,1.6-3.7,1.6c-6.4,0-6.4-10,0-10c0.4,0,0.8,0,1.2,0.1c0.8-1,2-1.6,3.7-1.6
		c0.9,0,1.7,0.2,2.4,0.6c0.5-1.9,2.1-3.5,4.6-3.5c3.7-0.1,8.3-1.9,11.9-1c0.1,0,0.3,0.1,0.4,0.1c0.6-0.2,1.2-0.4,1.9-0.5
		c1.7-0.4,3.4-0.8,5.1-1.4c0.1,0,0.2-0.1,0.3-0.1c0.5-0.4,1.1-0.6,1.9-0.7c0.4-0.2,0.8-0.3,1.3-0.3c0.4-0.1,0.8-0.1,1.3-0.1
		C236,189.4,236.1,198.9,230.1,199.4z M265.7,146.8c-0.4,0.6-1,1.1-1.7,1.5c-0.3,0.2-0.7,0.3-1.1,0.5c-0.2,2.3-1.8,4.5-4.8,4.5
		c-1.2,0-2.2-0.4-3-1c-0.5-0.4-0.9-0.8-1.3-1.4c-0.1-0.1-0.1-0.1-0.2-0.2c-0.3-0.1-0.5-0.2-0.8-0.3c-0.3-0.2-0.6-0.4-0.8-0.7
		c-0.7,0-1.3-0.2-1.9-0.5c-0.7,2.3-1.4,4.6-1.9,6.9c-1.4,6.3-11.1,3.6-9.6-2.7c0.2-0.9,0.5-1.9,0.7-2.8c-0.2,0.2-0.4,0.3-0.6,0.5
		c-0.4,0.3-0.9,0.4-1.3,0.6c-0.1,0-0.1,0-0.2,0c-0.2,0-0.5,0.1-0.7,0.1c-0.2,0-0.4,0.1-0.6,0.1c-0.1,0.1-0.3,0.2-0.4,0.2
		c-0.6,0.5-1.4,0.8-2.4,0.9c0,0,0,0-0.1,0c-0.8,0.9-2,1.5-3.6,1.5c-5.5,0-6.3-7.3-2.4-9.4c0,0,0,0,0,0c0.3-0.3,0.7-0.6,1.1-0.8
		c0,0,0,0,0,0c0,0,0,0,0,0c0,0,0,0,0,0c0.2-0.1,0.4-0.2,0.6-0.3c0.5-0.3,1.2-0.6,1.9-0.7c0.1-0.1,0.2-0.1,0.4-0.2
		c-0.3-2.7,1.3-5.7,4.8-5.7c0.4,0,0.7,0,1,0.1c0.3-0.2,0.5-0.4,0.8-0.6c1.1-0.7,2.6-0.8,3.9-0.5c0.9,0.2,1.7,0.8,2.4,1.5
		c0.2-0.4,0.4-0.9,0.6-1.3c2.5-5.2,9.6-1.7,9.2,3.2c0,0,0.1,0,0.1,0c0.3-0.1,0.5-0.1,0.8-0.1c0.5-0.1,1-0.1,1.5,0c0,0,0.1,0,0.1,0
		c0.4-0.2,0.9-0.3,1.3-0.3c0.3,0,0.6,0,0.8,0c0.3-0.1,0.6-0.2,1-0.2c0.8-1.1,2.1-1.8,3.8-1.8C268.6,137.4,269.4,144.6,265.7,146.8z
		 M592.5,280.1c-6.4,0-6.4-10,0-10C598.9,270.1,598.9,280.1,592.5,280.1z"/>
</g>
<g id="Layer_1_1_">
	<path class="st1" d="M1026.3,338.2c10.3-1.5,20-5.9,27.9-12.7c27.9-24.5,24-76.8-6-101.1c-18.8-15.3-48.9-20.4-72.7-6
		c-28.5,17.2-36.9,55.5-24,82.8c9.9,21,31.7,34.2,54.2,37.3"/>
	<path class="st1" d="M837.5,338.5c1.7-7.4,29-121.5,123.7-149c7.3-2.1,87.9-24.2,127.6,23.5c33.3,40,13.4,98.9,7.6,113.8
		c-1.4,3.6-2.9,7.1-4.6,10.5"/>
	<path class="st1" d="M904.5,221.2c-11.8-21.1-35.2-37.3-60-37.7c-24.3-0.5-51.1,14-61,40c-11.9,31.1,5.1,66.4,32,80
		c9.2,4.5,19.3,6.8,29.6,6.4"/>
	<path class="st1" d="M879.4,339.1"/>
	<path class="st1" d="M720.5,338.2c-4.3-43.5,8.4-93.5,34-128.6c5.4-7.5,54.7-73.1,115-60c30.8,6.7,50.5,30.9,62.3,52.3"/>
	<path class="st1" d="M496.5,637.5c-282-26.5-496-156.1-496-312"/>
	<path class="st1" d="M1206.5,325.5c0,155.9-214,285.5-496,312"/>
	<path class="st1" d="M926.4,339.1c-8.2,0-16.6,0-25.2,0"/>
	<path class="st1" d="M1007.6,338.7c-24.3,0.3-51.3,0.4-81.2,0.5"/>
	<path class="st1" d="M1027.8,338.4l-20.2,0.2"/>
	<path class="st1" d="M1069.2,337.7c-12.7,0.3-26.5,0.5-41.4,0.7"/>
	<path class="st1" d="M1086.4,337.3c-5.5,0.1-11.3,0.3-17.2,0.4"/>
	<path class="st1" d="M1103.1,304c63.7,7.8,104.2,15.6,103.9,21.5c-0.2,5-30.7,9.4-120.6,11.8"/>
	<path class="st1" d="M598.9,274.8c42.1-0.8,84.1,2.2,125.6,2.7"/>
	<path class="st1" d="M168.3,301.3"/>
	<path class="st1" d="M57.7,317"/>
	<path class="st1" d="M687.8,337.8C459,335,230,331,1,325.5c6.7-1.1,14-3.2,20.9-3.2c-6.2,2.2-14.4,3.2-20.9,3.2
		c14.6-2.2,29.1-4.4,43.7-6.6"/>
	<path class="st1" d="M720.5,338.1l-32.7-0.3"/>
	<path class="st1" d="M879.4,339.1c-46.7-0.1-99.4-0.4-158.9-1"/>
	<path class="st1" d="M901.2,339.1h-21.8"/>
	<polyline class="st1" points="496.5,637.5 496.5,682.5 603.5,682.5 	"/>
	<polyline class="st1" points="603.5,682.5 710.5,682.5 710.5,637.5 	"/>
	<path class="st1" d="M170.3,323.8c-1.5-10.3-2-19.5-2-29.9C168.3,172.5,265.6,74,385.6,74s220.3,103,213.9,222.5
		c-0.3,13.4-1.3,26.7-3,40"/>
	<path class="st1" d="M425.5,334.5c16-18,30.4-53.7,19.7-77c-12.6-27.6-45.2-39.9-72.8-27.3c-0.2,0.1-0.4,0.2-0.6,0.3
		c-24.9,11.8-35.7,41.7-24,66.9c10.2,22.4,36.6,32.3,59,22.1c0.2-0.1,0.3-0.2,0.5-0.2c20.2-9.7,28.9-33.8,19.5-54.2
		c-8.2-18.1-29.6-26.2-47.8-17.9c-0.1,0.1-0.3,0.1-0.4,0.2c-16.4,7.8-23.4,27.4-15.8,43.9c6.7,14.7,24,21.2,38.7,14.5
		c0.1,0,0.2-0.1,0.3-0.1c13.3-6.4,19-22.2,12.8-35.5c-5.4-11.9-19.5-17.2-31.4-11.8c-0.1,0-0.2,0.1-0.3,0.1
		c-10.7,5.2-15.4,18-10.3,28.8c4.4,9.6,15.7,13.9,25.4,9.5c0.1,0,0.2-0.1,0.2-0.1c8.7-4.2,12.4-14.6,8.4-23.3
		c-3.6-7.8-12.8-11.3-20.6-7.7c-0.1,0-0.1,0.1-0.2,0.1c-7,3.4-10.1,11.8-6.8,18.9c2.9,6.3,10.3,9.1,16.6,6.3c0.1,0,0.1,0,0.2-0.1
		c5.7-2.7,8.2-9.6,5.5-15.3c-2.3-5.1-8.4-7.4-13.5-5.1c0,0-0.1,0-0.1,0.1c-4.6,2.2-6.6,7.7-4.5,12.4c1.9,4.1,6.8,5.9,11,4
		c0,0,0,0,0,0c3.7-1.8,5.3-6.2,3.6-10c-1.5-3.4-5.5-4.8-8.8-3.3c0,0-0.1,0-0.1,0c-3,1.5-4.3,5.1-2.9,8.1c1.2,2.7,4.5,3.9,7.2,2.7
		c0,0,0,0,0.1,0c2.4-1.2,3.5-4.1,2.4-6.6c-1-2.2-3.6-3.2-5.8-2.2c0,0,0,0,0,0c-2,0.9-2.9,3.3-1.9,5.3c0,0,0,0,0,0
		c0.8,1.8,2.9,2.6,4.7,1.8c0,0,0,0,0,0c1.6-0.8,2.3-2.7,1.6-4.3c-0.7-1.5-2.4-2.1-3.8-1.4c0,0,0,0,0,0c-1.3,0.6-1.9,2.2-1.3,3.5
		c0.5,1.2,1.9,1.7,3.1,1.2c0,0,0,0,0,0c1-0.5,1.5-1.8,1-2.8c-0.4-1-1.6-1.4-2.5-0.9c0,0,0,0,0,0c-0.9,0.4-1.2,1.4-0.8,2.3
		c0.3,0.8,1.2,1.1,2,0.8"/>
	<path class="st1" d="M465.5,334.5c10.9-24.3,19.9-62.4,7.9-88.5c-19.7-42.6-69.8-61.1-111.9-41.2c-37.9,17.9-54.3,63.6-36.6,101.9
		c3.1,6.8,15.4,23.8,21.2,26"/>
	<path class="st1" d="M521.5,335.5c8-31.3,9.5-75.5-5.1-107.1c-30-65-106.4-93.1-170.6-62.8c-46.3,16.9-95.7,100-51.7,166.1"/>
	<path class="st1" d="M596.5,336.5c5.8-40.8,4-94.8-14.5-134.9c-45.7-99.1-162.1-141.9-260-95.7c-82.5,38.9-119.4,139.5-90.4,224.7"
		/>
	<path class="st1" d="M44.2,325.5C37.7,285,48,242.7,70.7,208.8c21.5-32.1,54.1-56.2,91.4-66.5c22.7-6.3,46.8-7.6,70.1-4.2"/>
	<path class="st1" d="M173.5,246.1c-16.5,16.3-22.6,43.4-12.3,64.5c3.5,7.2,8.9,13.2,14.4,18.9"/>
	<path class="st1" d="M188.6,201.1c-19.3,6.3-35.3,18.8-45.5,36.5c-10,17.3-14.1,37.9-12.4,57.8c1,11.4,3.9,22.7,8.8,33.1"/>
	<path class="st1" d="M224.8,146.3c-34.3-1.8-69.3,10.1-95.3,32.5c-25.5,21.9-40.7,53.8-46.2,86.6c-3.5,20.7-2.7,42.6,5.3,62.1"/>
</g>
</svg>
